REM DIRINDEX 1\2,1\3,1\4,1\5\6,1\5\7,1\8
REM DIRNAME cjc115,folder01,folder02,folder03,folder04,folder05,folder06,folder07
TITLE ""
FILE "069 【069】Unit4 (0781 nominate_0792 resignation).mp3" MP3
  TRACK 01 AUDIO
    TITLE "0:"
    INDEX 01 00:00:00
  TRACK 02 AUDIO
    TITLE "2:cjc115_2686"
    INDEX 01 00:00:01
  TRACK 03 AUDIO
    TITLE "0:"
    INDEX 01 00:01:21
  TRACK 04 AUDIO
    TITLE "3:cjc115_2687"
    INDEX 01 00:01:28
  TRACK 05 AUDIO
    TITLE "0:"
    INDEX 01 00:03:70
  TRACK 06 AUDIO
    TITLE "4:cjc115_2688"
    INDEX 01 00:04:03
  TRACK 07 AUDIO
    TITLE "0:"
    INDEX 01 00:07:41
  TRACK 08 AUDIO
    TITLE "2:cjc115_2689"
    INDEX 01 00:08:42
  TRACK 09 AUDIO
    TITLE "0:"
    INDEX 01 00:09:57
  TRACK 10 AUDIO
    TITLE "3:cjc115_2690"
    INDEX 01 00:09:65
  TRACK 11 AUDIO
    TITLE "0:"
    INDEX 01 00:11:48
  TRACK 12 AUDIO
    TITLE "4:cjc115_2691"
    INDEX 01 00:11:56
  TRACK 13 AUDIO
    TITLE "0:"
    INDEX 01 00:16:26
  TRACK 14 AUDIO
    TITLE "2:cjc115_2692"
    INDEX 01 00:17:29
  TRACK 15 AUDIO
    TITLE "0:"
    INDEX 01 00:18:52
  TRACK 16 AUDIO
    TITLE "3:cjc115_2693"
    INDEX 01 00:18:64
  TRACK 17 AUDIO
    TITLE "0:"
    INDEX 01 00:20:73
  TRACK 18 AUDIO
    TITLE "4:cjc115_2694"
    INDEX 01 00:21:00
  TRACK 19 AUDIO
    TITLE "0:"
    INDEX 01 00:25:03
  TRACK 20 AUDIO
    TITLE "2:cjc115_2695"
    INDEX 01 00:26:07
  TRACK 21 AUDIO
    TITLE "0:"
    INDEX 01 00:27:30
  TRACK 22 AUDIO
    TITLE "3:cjc115_2696"
    INDEX 01 00:27:38
  TRACK 23 AUDIO
    TITLE "0:"
    INDEX 01 00:30:32
  TRACK 24 AUDIO
    TITLE "4:cjc115_2697"
    INDEX 01 00:30:42
  TRACK 25 AUDIO
    TITLE "0:"
    INDEX 01 00:35:27
  TRACK 26 AUDIO
    TITLE "2:cjc115_2698"
    INDEX 01 00:36:35
  TRACK 27 AUDIO
    TITLE "0:"
    INDEX 01 00:37:63
  TRACK 28 AUDIO
    TITLE "3:cjc115_2699"
    INDEX 01 00:37:71
  TRACK 29 AUDIO
    TITLE "0:"
    INDEX 01 00:39:37
  TRACK 30 AUDIO
    TITLE "4:cjc115_2700"
    INDEX 01 00:39:43
  TRACK 31 AUDIO
    TITLE "0:"
    INDEX 01 00:44:28
  TRACK 32 AUDIO
    TITLE "2:cjc115_2701"
    INDEX 01 00:45:37
  TRACK 33 AUDIO
    TITLE "0:"
    INDEX 01 00:46:56
  TRACK 34 AUDIO
    TITLE "3:cjc115_2702"
    INDEX 01 00:46:66
  TRACK 35 AUDIO
    TITLE "0:"
    INDEX 01 00:49:31
  TRACK 36 AUDIO
    TITLE "4:cjc115_2703"
    INDEX 01 00:49:39
  TRACK 37 AUDIO
    TITLE "0:"
    INDEX 01 00:53:11
  TRACK 38 AUDIO
    TITLE "2:cjc115_2704"
    INDEX 01 00:54:21
  TRACK 39 AUDIO
    TITLE "0:"
    INDEX 01 00:55:30
  TRACK 40 AUDIO
    TITLE "3:cjc115_2705"
    INDEX 01 00:55:36
  TRACK 41 AUDIO
    TITLE "0:"
    INDEX 01 00:57:35
  TRACK 42 AUDIO
    TITLE "4:cjc115_2706"
    INDEX 01 00:57:45
  TRACK 43 AUDIO
    TITLE "0:"
    INDEX 01 01:01:33
  TRACK 44 AUDIO
    TITLE "2:cjc115_2707"
    INDEX 01 01:02:44
  TRACK 45 AUDIO
    TITLE "0:"
    INDEX 01 01:03:53
  TRACK 46 AUDIO
    TITLE "3:cjc115_2708"
    INDEX 01 01:03:61
  TRACK 47 AUDIO
    TITLE "0:"
    INDEX 01 01:05:69
  TRACK 48 AUDIO
    TITLE "4:cjc115_2709"
    INDEX 01 01:06:02
  TRACK 49 AUDIO
    TITLE "0:"
    INDEX 01 01:10:33
  TRACK 50 AUDIO
    TITLE "2:cjc115_2710"
    INDEX 01 01:11:43
  TRACK 51 AUDIO
    TITLE "0:"
    INDEX 01 01:12:54
  TRACK 52 AUDIO
    TITLE "3:cjc115_2711"
    INDEX 01 01:12:60
  TRACK 53 AUDIO
    TITLE "0:"
    INDEX 01 01:15:13
  TRACK 54 AUDIO
    TITLE "4:cjc115_2712"
    INDEX 01 01:15:21
  TRACK 55 AUDIO
    TITLE "0:"
    INDEX 01 01:19:46
  TRACK 56 AUDIO
    TITLE "2:cjc115_2713"
    INDEX 01 01:20:51
  TRACK 57 AUDIO
    TITLE "0:"
    INDEX 01 01:21:53
  TRACK 58 AUDIO
    TITLE "3:cjc115_2714"
    INDEX 01 01:21:63
  TRACK 59 AUDIO
    TITLE "0:"
    INDEX 01 01:24:61
  TRACK 60 AUDIO
    TITLE "4:cjc115_2715"
    INDEX 01 01:24:65
  TRACK 61 AUDIO
    TITLE "0:"
    INDEX 01 01:29:19
  TRACK 62 AUDIO
    TITLE "2:cjc115_2716"
    INDEX 01 01:30:28
  TRACK 63 AUDIO
    TITLE "0:"
    INDEX 01 01:31:45
  TRACK 64 AUDIO
    TITLE "3:cjc115_2717"
    INDEX 01 01:31:53
  TRACK 65 AUDIO
    TITLE "0:"
    INDEX 01 01:33:50
  TRACK 66 AUDIO
    TITLE "4:cjc115_2718"
    INDEX 01 01:33:60
  TRACK 67 AUDIO
    TITLE "0:"
    INDEX 01 01:38:26
  TRACK 68 AUDIO
    TITLE "2:cjc115_2719"
    INDEX 01 01:39:31
  TRACK 69 AUDIO
    TITLE "0:"
    INDEX 01 01:40:66
  TRACK 70 AUDIO
    TITLE "3:cjc115_2720"
    INDEX 01 01:41:01
  TRACK 71 AUDIO
    TITLE "0:"
    INDEX 01 01:42:04
  TRACK 72 AUDIO
    TITLE "4:cjc115_2721"
    INDEX 01 01:42:12
  TRACK 73 AUDIO
    TITLE "0:"
    INDEX 01 01:45:44
